{
  "accessors": [
    {
      "bufferView": 2,
      "componentType": 5126,
      "count": 580,
      "max": [
        5.205949783325195,
        5.205949783325195,
        15.23628044128418
      ],
      "min": [
        -5.205949783325195,
        -5.205959796905518,
        0.0
      ],
      "type": "VEC3"
    },
    {
      "bufferView": 2,
      "byteOffset": 6960,
      "componentType": 5126,
      "count": 580,
      "max": [
        1.0,
        1.0,
        0.9740495085716248
      ],
      "min": [
        -1.0,
        -1.0,
        -0.99049311876297
      ],
      "type": "VEC3"
    },
    {
      "bufferView": 1,
      "componentType": 5126,
      "count": 580,
      "max": [
        0.9888799786567688,
        0.949720025062561
      ],
      "min": [
        0.004920000210404396,
        0.0530100017786026
      ],
      "type": "VEC2"
    },
    {
      "bufferView": 0,
      "componentType": 5125,
      "count": 2868,
      "type": "SCALAR"
    },
    {
      "bufferView": 2,
      "byteOffset": 13920,
      "componentType": 5126,
      "count": 362,
      "max": [
        1.690250039100647,
        1.690250039100647,
        11.324419975280762
      ],
      "min": [
        -1.690250039100647,
        -1.690250039100647,
        0.01711999997496605
      ],
      "type": "VEC3"
    },
    {
      "bufferView": 2,
      "byteOffset": 18264,
      "componentType": 5126,
      "count": 362,
      "max": [
        1.0,
        1.0,
        0.984280526638031
      ],
      "min": [
        -1.0,
        -1.0,
        -1.0
      ],
      "type": "VEC3"
    },
    {
      "bufferView": 1,
      "byteOffset": 4640,
      "componentType": 5126,
      "count": 362,
      "max": [
        0.9976800084114075,
        0.9998599886894226
      ],
      "min": [
        0.00014000000373926014,
        0.00014000000373926014
      ],
      "type": "VEC2"
    },
    {
      "bufferView": 0,
      "byteOffset": 11472,
      "componentType": 5125,
      "count": 1464,
      "type": "SCALAR"
    },
    {
      "bufferView": 2,
      "byteOffset": 22608,
      "componentType": 5126,
      "count": 362,
      "max": [
        2.32778000831604,
        2.32778000831604,
        16.673789978027344
      ],
      "min": [
        -2.32778000831604,
        -2.32778000831604,
        0.021609999239444733
      ],
      "type": "VEC3"
    },
    {
      "bufferView": 2,
      "byteOffset": 26952,
      "componentType": 5126,
      "count": 362,
      "max": [
        1.0,
        1.0,
        0.9792639017105103
      ],
      "min": [
        -1.0,
        -1.0,
        -1.0
      ],
      "type": "VEC3"
    },
    {
      "bufferView": 1,
      "byteOffset": 7536,
      "componentType": 5126,
      "count": 362,
      "max": [
        0.9976800084114075,
        0.9998599886894226
      ],
      "min": [
        0.00014000000373926014,
        0.00014000000373926014
      ],
      "type": "VEC2"
    },
    {
      "bufferView": 0,
      "byteOffset": 17328,
      "componentType": 5125,
      "count": 1464,
      "type": "SCALAR"
    },
    {
      "bufferView": 2,
      "byteOffset": 31296,
      "componentType": 5126,
      "count": 362,
      "max": [
        2.6464500427246094,
        2.6464500427246094,
        20.656469345092773
      ],
      "min": [
        -2.6464500427246094,
        -2.6464500427246094,
        0.026809999719262123
      ],
      "type": "VEC3"
    },
    {
      "bufferView": 2,
      "byteOffset": 35640,
      "componentType": 5126,
      "count": 362,
      "max": [
        1.0,
        1.0,
        0.9744488596916199
      ],
      "min": [
        -1.0,
        -1.0,
        -1.0
      ],
      "type": "VEC3"
    },
    {
      "bufferView": 1,
      "byteOffset": 10432,
      "componentType": 5126,
      "count": 362,
      "max": [
        0.9976800084114075,
        0.9998599886894226
      ],
      "min": [
        0.00014000000373926014,
        0.00014000000373926014
      ],
      "type": "VEC2"
    },
    {
      "bufferView": 0,
      "byteOffset": 23184,
      "componentType": 5125,
      "count": 1464,
      "type": "SCALAR"
    },
    {
      "bufferView": 2,
      "byteOffset": 39984,
      "componentType": 5126,
      "count": 502,
      "max": [
        3.6827099323272705,
        3.361690044403076,
        8.923020362854004
      ],
      "min": [
        -3.3685801029205322,
        -3.361690044403076,
        0.005499999970197678
      ],
      "type": "VEC3"
    },
    {
      "bufferView": 2,
      "byteOffset": 46008,
      "componentType": 5126,
      "count": 502,
      "max": [
        0.9999999403953552,
        0.9999999403953552,
        0.9537811875343323
      ],
      "min": [
        -0.9999999403953552,
        -0.9999999403953552,
        -0.9872754216194153
      ],
      "type": "VEC3"
    },
    {
      "bufferView": 1,
      "byteOffset": 13328,
      "componentType": 5126,
      "count": 502,
      "max": [
        0.9943400025367737,
        0.9916999936103821
      ],
      "min": [
        0.006670000031590462,
        0.004550000187009573
      ],
      "type": "VEC2"
    },
    {
      "bufferView": 0,
      "byteOffset": 29040,
      "componentType": 5125,
      "count": 2376,
      "type": "SCALAR"
    },
    {
      "bufferView": 2,
      "byteOffset": 52032,
      "componentType": 5126,
      "count": 498,
      "max": [
        5.767399787902832,
        5.258540153503418,
        12.603719711303711
      ],
      "min": [
        -5.269400119781494,
        -5.258540153503418,
        0.0
      ],
      "type": "VEC3"
    },
    {
      "bufferView": 2,
      "byteOffset": 58008,
      "componentType": 5126,
      "count": 498,
      "max": [
        1.0,
        1.0,
        0.9599144458770752
      ],
      "min": [
        -1.0,
        -1.0,
        -0.9901502728462219
      ],
      "type": "VEC3"
    },
    {
      "bufferView": 1,
      "byteOffset": 17344,
      "componentType": 5126,
      "count": 498,
      "max": [
        0.9943400025367737,
        0.9916999936103821
      ],
      "min": [
        0.006670000031590462,
        0.004550000187009573
      ],
      "type": "VEC2"
    },
    {
      "bufferView": 0,
      "byteOffset": 38544,
      "componentType": 5125,
      "count": 2376,
      "type": "SCALAR"
    }
  ],
  "asset": {
    "extras": {
      "author": "maxdragonn (https://sketchfab.com/maxdragon)",
      "license": "CC-BY-4.0 (http://creativecommons.org/licenses/by/4.0/)",
      "source": "https://sketchfab.com/3d-models/chemistry-glassware-b8594f7dc7e8442dbaaae7a11da4a962",
      "title": "Chemistry Glassware"
    },
    "generator": "Sketchfab-10.99.0",
    "version": "2.0"
  },
  "bufferViews": [
    {
      "buffer": 0,
      "byteLength": 48048,
      "name": "floatBufferViews",
      "target": 34963
    },
    {
      "buffer": 0,
      "byteLength": 21328,
      "byteOffset": 48048,
      "byteStride": 8,
      "name": "floatBufferViews",
      "target": 34962
    },
    {
      "buffer": 0,
      "byteLength": 63984,
      "byteOffset": 69376,
      "byteStride": 12,
      "name": "floatBufferViews",
      "target": 34962
    }
  ],
  "buffers": [
    {
      "byteLength": 133360,
      "uri": "scene.bin"
    }
  ],
  "extensionsUsed": [
    "KHR_materials_clearcoat"
  ],
  "images": [
    {
      "uri": "textures/lab_beaker_a_baseColor.png"
    },
    {
      "uri": "textures/lab_cylinder_a_baseColor.png"
    },
    {
      "uri": "textures/lab_erlenmeyer_a_baseColor.png"
    }
  ],
  "materials": [
    {
      "alphaMode": "BLEND",
      "extensions": {
        "KHR_materials_clearcoat": {
          "clearcoatFactor": 1.0,
          "clearcoatRoughnessFactor": 0.04
        }
      },
      "name": "lab_beaker_a",
      "pbrMetallicRoughness": {
        "baseColorTexture": {
          "index": 0
        },
        "metallicFactor": 0.4455626896254005,
        "roughnessFactor": 0.0
      }
    },
    {
      "alphaMode": "BLEND",
      "name": "lab_cylinder_a",
      "pbrMetallicRoughness": {
        "baseColorTexture": {
          "index": 1
        },
        "metallicFactor": 0.28139801421544486,
        "roughnessFactor": 0.0
      }
    },
    {
      "alphaMode": "BLEND",
      "name": "lab_erlenmeyer_a",
      "pbrMetallicRoughness": {
        "baseColorTexture": {
          "index": 2
        },
        "metallicFactor": 0.36652043850208854,
        "roughnessFactor": 0.0
      }
    }
  ],
  "meshes": [
    {
      "name": "lab_erlenmeyer_a_0",
      "primitives": [
        {
          "attributes": {
            "NORMAL": 1,
            "POSITION": 0,
            "TEXCOORD_0": 2
          },
          "indices": 3,
          "material": 2,
          "mode": 4
        }
      ]
    },
    {
      "name": "lab_cylinder_c_0",
      "primitives": [
        {
          "attributes": {
            "NORMAL": 5,
            "POSITION": 4,
            "TEXCOORD_0": 6
          },
          "indices": 7,
          "material": 1,
          "mode": 4
        }
      ]
    },
    {
      "name": "lab_cylinder_b_0",
      "primitives": [
        {
          "attributes": {
            "NORMAL": 9,
            "POSITION": 8,
            "TEXCOORD_0": 10
          },
          "indices": 11,
          "material": 1,
          "mode": 4
        }
      ]
    },
    {
      "name": "lab_cylinder_a_0",
      "primitives": [
        {
          "attributes": {
            "NORMAL": 13,
            "POSITION": 12,
            "TEXCOORD_0": 14
          },
          "indices": 15,
          "material": 1,
          "mode": 4
        }
      ]
    },
    {
      "name": "lab_beaker_b_0",
      "primitives": [
        {
          "attributes": {
            "NORMAL": 17,
            "POSITION": 16,
            "TEXCOORD_0": 18
          },
          "indices": 19,
          "material": 0,
          "mode": 4
        }
      ]
    },
    {
      "name": "lab_beaker_a_0",
      "primitives": [
        {
          "attributes": {
            "NORMAL": 21,
            "POSITION": 20,
            "TEXCOORD_0": 22
          },
          "indices": 23,
          "material": 0,
          "mode": 4
        }
      ]
    }
  ],
  "nodes": [
    {
      "children": [
        1
      ],
      "matrix": [
        1.0,
        0.0,
        0.0,
        0.0,
        0.0,
        2.220446049250313e-16,
        -1.0,
        0.0,
        0.0,
        1.0,
        2.220446049250313e-16,
        0.0,
        0.0,
        0.0,
        0.0,
        1.0
      ],
      "name": "Sketchfab_model"
    },
    {
      "children": [
        2,
        4,
        6,
        8,
        10,
        12,
        14
      ],
      "name": "Root"
    },
    {
      "children": [
        3
      ],
      "matrix": [
        1.0,
        0.0,
        0.0,
        0.0,
        0.0,
        1.0,
        0.0,
        0.0,
        0.0,
        0.0,
        1.0,
        0.0,
        -2.0,
        8.0,
        0.0,
        1.0
      ],
      "name": "lab_erlenmeyer_a"
    },
    {
      "mesh": 0,
      "name": "lab_erlenmeyer_a_0"
    },
    {
      "children": [
        5
      ],
      "matrix": [
        1.0,
        0.0,
        0.0,
        0.0,
        0.0,
        1.0,
        0.0,
        0.0,
        0.0,
        0.0,
        1.0,
        0.0,
        20.0,
        1.0,
        0.0,
        1.0
      ],
      "name": "lab_cylinder_c"
    },
    {
      "mesh": 1,
      "name": "lab_cylinder_c_0"
    },
    {
      "children": [
        7
      ],
      "matrix": [
        1.0,
        0.0,
        0.0,
        0.0,
        0.0,
        1.0,
        0.0,
        0.0,
        0.0,
        0.0,
        1.0,
        0.0,
        14.0,
        6.0,
        0.0,
        1.0
      ],
      "name": "lab_cylinder_b"
    },
    {
      "mesh": 2,
      "name": "lab_cylinder_b_0"
    },
    {
      "children": [
        9
      ],
      "matrix": [
        1.0,
        0.0,
        0.0,
        0.0,
        0.0,
        1.0,
        0.0,
        0.0,
        0.0,
        0.0,
        1.0,
        0.0,
        7.0,
        8.0,
        0.0,
        1.0
      ],
      "name": "lab_cylinder_a"
    },
    {
      "mesh": 3,
      "name": "lab_cylinder_a_0"
    },
    {
      "children": [
        11
      ],
      "matrix": [
        1.0,
        0.0,
        0.0,
        0.0,
        0.0,
        1.0,
        0.0,
        0.0,
        0.0,
        0.0,
        1.0,
        0.0,
        -21.0,
        8.0,
        0.0,
        1.0
      ],
      "name": "lab_beaker_b"
    },
    {
      "mesh": 4,
      "name": "lab_beaker_b_0"
    },
    {
      "children": [
        13
      ],
      "matrix": [
        1.0,
        0.0,
        0.0,
        0.0,
        0.0,
        1.0,
        0.0,
        0.0,
        0.0,
        0.0,
        1.0,
        0.0,
        -12.0,
        14.0,
        0.0,
        1.0
      ],
      "name": "lab_beaker_a"
    },
    {
      "mesh": 5,
      "name": "lab_beaker_a_0"
    },
    {
      "children": [
        15
      ],
      "matrix": [
        -0.29086000000000006,
        0.9551700000000001,
        -0.05519000000000001,
        0.0,
        -0.7711,
        -0.19988000000000003,
        0.6045200000000001,
        0.0,
        0.5663900000000001,
        0.21839000000000003,
        0.7946700000000001,
        0.0,
        4.076250000000001,
        1.00545,
        5.903860000000001,
        1.0
      ],
      "name": "Lamp"
    },
    {
      "name": "Lamp"
    }
  ],
  "samplers": [
    {
      "magFilter": 9729,
      "minFilter": 9987,
      "wrapS": 10497,
      "wrapT": 10497
    }
  ],
  "scene": 0,
  "scenes": [
    {
      "name": "Sketchfab_Scene",
      "nodes": [
        0
      ]
    }
  ],
  "textures": [
    {
      "sampler": 0,
      "source": 0
    },
    {
      "sampler": 0,
      "source": 1
    },
    {
      "sampler": 0,
      "source": 2
    }
  ]
}
